<?xml version="1.0" standalone="yes"?>
<svg xmlns="http://www.w3.org/2000/svg" width="300" height="300">
<path style="fill:#1373bd; stroke:none;" d="M144 237L284 237C284 219.277 283.813 201.66 283.039 184C282.73 176.926 284.781 167.618 281.91 161.001C279.537 155.529 274.1 153.08 270.171 148.957C263.853 142.328 258.525 134.398 253.152 127C244.639 115.279 236.081 96.1408 220 94.1844C196.987 91.3848 187.425 108.307 177.011 126C156.295 161.194 144 195.965 144 237z"/>
<path style="fill:#1373bd; stroke:none;" d="M23 237L126 237C125.004 213.804 115.59 188.478 98.9992 172.004C93.2875 166.332 85.8602 157.721 77 158.391C68.0306 159.069 60.7574 168.822 55.1698 175C38.2764 193.678 27.6076 212.269 23 237z"/>
<path style="fill:#1373bd; stroke:none;" d="M23 237L23 290L126 290L126 237L23 237z"/>
<path style="fill:#1373bd; stroke:none;" d="M144 237L144 290L284 290L284 237L144 237z"/>
<path style="fill:#61966c; stroke:none; fill-opacity: 0.75" d="M9 237L9 290L290 290L290 237L9 237z"/>
</svg>
